<svg width="299" height="85" viewBox="0 0 299 85" fill="none" xmlns="http://www.w3.org/2000/svg">
<path d="M64.8 49H0V51H64.8V49Z" fill="#606060"/>
<path d="M64.89 66.78C74.2181 66.78 81.78 59.2181 81.78 49.89C81.78 40.5619 74.2181 33 64.89 33C55.5619 33 48 40.5619 48 49.89C48 59.2181 55.5619 66.78 64.89 66.78Z" fill="#B61173"/>
<g opacity="0.2">
<path opacity="0.2" d="M67.63 33.24L48.24 52.63C48.8792 56.5158 50.8608 60.0545 53.84 62.63L77.64 38.83C75.0604 35.8525 71.5181 33.8744 67.63 33.24Z" fill="white"/>
<path opacity="0.2" d="M81.67 48C81.4397 45.902 80.8154 43.8664 79.83 42L57.03 64.8C58.8964 65.7854 60.932 66.4097 63.03 66.64L81.67 48Z" fill="white"/>
</g>
<g style="mix-blend-mode:multiply">
<path d="M64.89 58.33C69.5513 58.33 73.33 54.5513 73.33 49.89C73.33 45.2287 69.5513 41.45 64.89 41.45C60.2287 41.45 56.45 45.2287 56.45 49.89C56.45 54.5513 60.2287 58.33 64.89 58.33Z" fill="#B61173"/>
</g>
<path d="M234.93 0L210.41 20.7L249.6 27.68L234.93 0Z" fill="#B61173"/>
<path opacity="0.4" d="M235.93 0L211.41 20.7L250.6 27.68L235.93 0Z" fill="black"/>
<path d="M111.59 8.77002L99 46.6H119.76L111.59 8.77002Z" fill="white"/>
<g style="mix-blend-mode:multiply" opacity="0.5">
<path d="M112.59 8.77002L100 46.6H120.76L112.59 8.77002Z" fill="#606060"/>
</g>
<g style="mix-blend-mode:multiply" opacity="0.3">
<path d="M112.59 8.77002L107.4 46.6H120.76L112.59 8.77002Z" fill="#606060"/>
</g>
<path d="M292.6 8.77002H111.58V84.44H292.6V8.77002Z" fill="white"/>
<path opacity="0.2" d="M292.448 7.41998H233.738L240.348 62.5L285.398 67.93L292.448 30.9V7.41998Z" fill="#606060"/>
<path d="M234.93 0L298.88 4.31L287.21 65.65L242.16 60.22L234.93 0Z" fill="#B61173"/>
<g opacity="0.1">
<path opacity="0.1" d="M271.64 2.46997L239.13 34.99L241.44 54.21L291.81 3.82999L271.64 2.46997Z" fill="white"/>
<path opacity="0.1" d="M296.39 17.43L298.88 4.30997L298.75 4.29999L242.75 60.3L252.36 61.45L296.39 17.43Z" fill="white"/>
</g>
</svg>
